<svg viewBox="0 0 800 800" xmlns="http://www.w3.org/2000/svg"><path d="M429.74996206726314,790.8044135797818 L429.33544865060964,794.9701024013386 M429.33544865060964,794.9701024013386 L427.21234561153005,798.9574800777575 M427.21234561153005,798.9574800777575 L423.50363498855273,802.5341336540218 M423.50363498855273,802.5341336540218 L418.42489474341306,805.4914237928961 M418.42489474341306,805.4914237928961 L412.27182754703864,807.6567201590613 M412.27182754703864,807.6567201590613 L405.4030409217798,808.9035541294993 M405.4030409217798,808.9035541294993 L398.2190977994554,809.1590762049675 M398.2190977994554,809.1590762049675 L391.139036416114,808.4083562142928 M391.139036416114,808.4083562142928 L384.575805561751,806.6952595022597 M384.575805561751,806.6952595022597 L378.91205163513655,804.1198643813248 M378.91205163513655,804.1198643813248 L374.47772589474675,800.8325520634214 M374.47772589474675,800.8325520634214 L371.5308262578212,797.025156042266 M371.5308262578212,797.025156042266 L370.24242606015326,792.9196905546044 M370.24242606015326,792.9196905546044 L370.68681958275806,788.7553496985129 M370.68681958275806,788.7553496985129 L372.8373744945423,784.7745421971106 M372.8373744945423,784.7745421971106 L376.5682474140424,781.2087950420739 M376.5682474140424,781.2087950420739 L381.6618557039867,778.2653239895862 M381.6618557039867,778.2653239895862 L387.82163229432786,776.1150657975452 M387.82163229432786,776.1150657975452 L394.6892907743335,774.882825358146 M394.6892907743335,774.882825358146 L401.86559928077224,774.6400977645542 M401.86559928077224,774.6400977645542 L429.74996206726314,790.8044135797818 M304.32117118747925,481.21448144007337 L319.24980717084776,488.62167739361007 M319.24980717084776,488.62167739361007 L335.9111893834816,494.70411455160445 M335.9111893834816,494.70411455160445 L353.9487123377323,499.33030294751654 M353.9487123377323,499.33030294751654 L372.97557149374586,502.4001155340528 M372.97557149374586,502.4001155340528 L392.58320293251916,503.8470670298209 M392.58320293251916,503.8470670298209 L412.35024215327985,503.63979779060196 M412.35024215327985,503.63979779060196 L431.8518332758044,501.7828004184744 M431.8518332758044,501.7828004184744 L450.668961302039,498.316311294352 M450.668961302039,498.316311294352 L468.3976843523964,493.31540997428533 M468.3976843523964,493.31540997428533 L484.65795244767907,486.88829029414364 M484.65795244767907,486.88829029414364 L499.1019637532733,479.1738493491395 M499.1019637532733,479.1738493491395 L511.4216165314619,470.33853722507814 M511.4216165314619,470.33853722507814 L521.3551215247131,460.57264589721296 M521.3551215247131,460.57264589721296 L528.6925283323842,450.0860923418214 M528.6925283323842,450.0860923418214 L533.2800245918029,439.1037889177137 M533.2800245918029,439.1037889177137 L535.0229951680873,427.8607107599761 M535.0229951680873,427.8607107599761 L533.8877859914375,416.5968530966522 M533.8877859914375,416.5968530966522 L529.902109661727,405.55204745539913 M529.902109661727,405.55204745539913 L523.1541740141595,394.9608883142262 M523.1541740141595,394.9608883142262 L513.790502544996,385.04780876582277 M513.790502544996,385.04780876582277 L502.0125945125242,376.02239899560834 M502.0125945125242,376.02239899560834 L488.072494513167,368.0750728916935 M488.072494513167,368.0750728916935 L472.26729486787843,361.3731908628769 M472.26729486787843,361.3731908628769 L454.9328147492155,356.05766824517775 M454.9328147492155,356.05766824517775 L436.43656046706167,352.2401103690395 M436.43656046706167,352.2401103690395 L417.17004069142087,350.0005903595599 M417.17004069142087,350.0005903595599 L397.54063515829176,349.3860569637694 M397.54063515829176,349.3860569637694 L377.9631971937172,350.40938576301346 M377.9631971937172,350.40938576301346 L358.851537126484,353.04913311204973 M358.851537126484,353.04913311204973 L340.60982592139055,357.2499540610527 M340.60982592139055,357.2499540610527 L323.62431942623056,362.92371426311814 M323.62431942623056,362.92371426311814 L308.2553053404224,369.9512514364611 M308.2553053404224,369.9512514364611 L294.8295620421624,378.1847531652635 M294.8295620421624,378.1847531652635 L283.6334744011992,387.45075003006934 M283.6334744011992,387.45075003006934 L274.90692791002425,397.5536573956874 M274.90692791002425,397.5536573956874 L268.83804533494043,408.2797454165041 M268.83804533494043,408.2797454165041 L265.55905472514223,419.401598424989 M265.55905472514223,419.401598424989 L265.1431832092787,430.6828392713347 M265.1431832092787,430.6828392713347 L267.6028370206158,441.88311767181926 M267.6028370206158,441.88311767181926 L272.88902594575256,452.7632089696149 M272.88902594575256,452.7632089696149 L280.8921392446325,463.09017383043795 M280.8921392446325,463.09017383043795 L291.4439800268767,472.6424064025162 M291.4439800268767,472.6424064025162 L304.32117118747925,481.21448144007337 M304.32117118747925,481.21448144007337 L304.7312841811646,717.2829922005816 M304.7312841811646,717.2829922005816 L319.59602442601704,724.7222869670985 M319.59602442601704,724.7222869670985 L336.18603181561,730.8310691895622 M336.18603181561,730.8310691895622 L354.14623488517105,735.477287328976 M354.14623488517105,735.477287328976 L373.0914972854045,738.5603873774938 M373.0914972854045,738.5603873774938 L392.61502019995004,740.0136008663903 M392.61502019995004,740.0136008663903 L412.2972613339342,739.8054346656254 M412.2972613339342,739.8054346656254 L431.71520260438166,737.940400497075 M431.71520260438166,737.940400497075 L450.45164073486046,734.458906032402 M450.45164073486046,734.458906032402 L468.1043783468917,729.4363506985828 M468.1043783468917,729.4363506985828 L484.2950036046814,722.9813898507957 M484.2950036046814,722.9813898507957 L498.6772096593139,715.2335140610387 M498.6772096593139,715.2335140610387 L510.94421412173483,706.3598860832026 M510.94421412173483,706.3598860832026 L520.8353430571963,696.551614602713 M520.8353430571963,696.551614602713 L528.1415341255821,686.0195199697855 M528.1415341255821,686.0195199697855 L532.7096182451329,674.9894852950747 M532.7096182451329,674.9894852950747 L534.4453669604474,663.6975030542302 M534.4453669604474,663.6975030542302 L533.3152502782394,652.3846108949722 M533.3152502782394,652.3846108949722 L529.346842229366,641.2916854440025 M529.346842229366,641.2916854440025 L522.6279548561868,630.6543467505683 M522.6279548561868,630.6543467505683 L513.3044695156545,620.6980121175388 M513.3044695156545,620.6980121175388 L501.5770125516616,611.6331935639262 M501.5770125516616,611.6331935639262 L487.6965447321339,603.6511447508145 M487.6965447321339,603.6511447508145 L471.9588876117125,596.9199659879487 M471.9588876117125,596.9199659879487 L454.6984296730744,591.5811969076992 M454.6984296730744,591.5811969076992 L436.28111622289396,587.7469381375964 M436.28111622289396,587.7469381375964 L417.0967965476667,585.4976186269257 M417.0967965476667,585.4976186269257 L397.5511261066256,584.8803959312273 M397.5511261066256,584.8803959312273 L378.0572034336979,585.9082029207083 M378.0572034336979,585.9082029207083 L359.0270883175544,588.5595005440896 M359.0270883175544,588.5595005440896 L340.86324055967225,592.778697742993 M340.86324055967225,592.778697742993 L323.9502781299132,598.4772686367246 M323.9502781299132,598.4772686367246 L308.646957367143,605.5355223168214 M308.646957367143,605.5355223168214 L295.27866322798957,613.8049918361664 M295.27866322798957,613.8049918361664 L284.1305541614371,623.1114413107897 M284.1305541614371,623.1114413107897 L275.44148245713944,633.2584240933388 M275.44148245713944,633.2584240933388 L269.3987539873711,644.0312709723802 M269.3987539873711,644.0312709723802 L266.1340149032967,655.2015697538061 M266.1340149032967,655.2015697538061 L265.7201600809092,666.5319107468583 M265.7201600809092,666.5319107468583 L268.1695225336818,677.7808971582898 M268.1695225336818,677.7808971582898 L273.4333020302963,688.708266099224 M273.4333020302963,688.708266099224 L281.4023393640108,699.0800705046818 M281.4023393640108,699.0800705046818 L291.90914351284937,708.6737487622449 M291.90914351284937,708.6737487622449 L304.7312841811646,717.2829922005816 M407.93932393351633,718.1984917188217 L409.60905977765844,719.4312158247949 M409.60905977765844,719.4312158247949 L410.7205458568764,720.859385350495 M410.7205458568764,720.859385350495 L411.20913023672745,722.4000458193125 M411.20913023672745,722.4000458193125 L411.0462991785033,723.963677829468 M411.0462991785033,723.963677829468 L410.2414197317604,725.459410383258 M410.2414197317604,725.459410383258 L408.84118212523737,726.8002725821302 M408.84118212523737,726.8002725821302 L406.9269010113395,727.9082874523313 M406.9269010113395,727.9082874523313 L404.6098358419598,728.7189934959229 M404.6098358419598,728.7189934959229 L402.0246934319588,729.1852235657453 M402.0246934319588,729.1852235657453 L399.3218074507304,729.2798503462784 M399.3218074507304,729.2798503462784 L396.6583517813318,728.9973601514894 M396.6583517813318,728.9973601514894 L394.18924027485684,728.3541941195717 M394.18924027485684,728.3541941195717 L392.0580233473683,727.3877802911874 M392.0580233473683,727.3877802911874 L390.38859640455547,726.1543399489941 M390.38859640455547,726.1543399489941 L389.2779421783763,724.7256205199524 M389.2779421783763,724.7256205199524 L388.79055506267554,723.1846995360136 M388.79055506267554,723.1846995360136 L388.95464148826443,721.6211531585143 M388.95464148826443,721.6211531585143 L389.7605608091102,720.1258408625831 M389.7605608091102,720.1258408625831 L391.16139351041613,718.7856320959154 M391.16139351041613,718.7856320959154 L393.0756746243484,717.6783518895425 M393.0756746243484,717.6783518895425 L395.39214469898405,716.8682934359487 M395.39214469898405,716.8682934359487 L397.9762472348581,716.402477780754 M397.9762472348581,716.402477780754 L400.6778778486551,716.3079424764157 M400.6778778486551,716.3079424764157 L403.3401362538515,716.5901721563478 M403.3401362538515,716.5901721563478 L405.8084159072963,717.2327882845527 M405.8084159072963,717.2327882845527 L407.93932393351633,718.1984917188217 M512.4850966184453,657.7058847681863 L514.1558303030333,658.9331948189435 M514.1558303030333,658.9331948189435 L515.2702932039166,660.35508532521 M515.2702932039166,660.35508532521 L515.7636410316406,661.8889778832345 M515.7636410316406,661.8889778832345 L515.6070985489844,663.4457377339589 M515.6070985489844,663.4457377339589 L514.8096677913638,664.9348932730109 M514.8096677913638,664.9348932730109 L513.4175965561881,666.2698617555496 M513.4175965561881,666.2698617555496 L511.51172997613963,667.3730061662538 M511.51172997613963,667.3730061662538 L509.20283820637746,668.1801484957751 M509.20283820637746,668.1801484957751 L506.62514761492685,668.6443319666035 M506.62514761492685,668.6443319666035 L503.92856803635857,668.7385427714555 M503.92856803635857,668.7385427714555 L501.2699063561065,668.4572914787857 M501.2699063561065,668.4572914787857 L498.8037826203764,667.8169556326054 M498.8037826203764,667.8169556326054 L496.67359333557124,666.8547870033071 M496.67359333557124,666.8547870033071 L495.0031544419686,665.6267712431738 M495.0031544419686,665.6267712431738 L493.8895276871946,664.2043286380494 M493.8895276871946,664.2043286380494 L493.3973608450934,662.6701830971515 M493.3973608450934,662.6701830971515 L493.55515349088824,661.1135083087809 M493.55515349088824,661.1135083087809 L494.35363118482735,659.6247644498071 M494.35363118482735,659.6247644498071 L495.74629738387705,658.290445102918 M495.74629738387705,658.290445102918 L497.6521667448281,657.1880305181662 M497.6521667448281,657.1880305181662 L499.9604684754179,656.3815315077635 M499.9604684754179,656.3815315077635 L502.5371152899493,655.9177655328962 M502.5371152899493,655.9177655328962 L505.23244537571014,655.8236456082523 M505.23244537571014,655.8236456082523 L507.8899240980722,656.1046322848797 M507.8899240980722,656.1046322848797 L510.3552075246832,656.744427665265 M510.3552075246832,656.744427665265 L512.4850966184453,657.7058847681863 M407.90447516122344,597.478803333662 L409.56687498013537,598.7007320361745 M409.56687498013537,598.7007320361745 L410.6734897171401,600.1163906185814 M410.6734897171401,600.1163906185814 L411.1599165077112,601.6435539858007 M411.1599165077112,601.6435539858007 L410.99780256976806,603.1934897779482 M410.99780256976806,603.1934897779482 L410.19645937998627,604.6761144710563 M410.19645937998627,604.6761144710563 L408.80236266333605,606.005225114329 M408.80236266333605,606.005225114329 L406.8964854686628,607.1035311084433 M406.8964854686628,607.1035311084433 L404.5895988060859,607.907136067341 M404.5895988060859,607.907136067341 L402.0158027329134,608.3692835013649 M402.0158027329134,608.3692835013649 L399.32478046743853,608.4630781704748 M399.32478046743853,608.4630781704748 L396.6730303326815,608.183063428872 M396.6730303326815,608.183063428872 L394.2147503021586,607.5455333476034 M394.2147503021586,607.5455333476034 L392.0928953600347,606.5875848907211 M392.0928953600347,606.5875848907211 L390.430791705513,605.3649551222165 M390.430791705513,605.3649551222165 L389.325021595044,603.9487538471408 M389.325021595044,603.9487538471408 L388.83976151810674,602.4213333808354 M388.83976151810674,602.4213333808354 L389.0031298558538,600.8714878769711 M389.0031298558538,600.8714878769711 L389.8055138401053,599.3892721525457 M389.8055138401053,599.3892721525457 L391.2001904072695,598.0608005947745 M391.2001904072695,598.0608005947745 L393.10606760197646,596.9632196311213 M393.10606760197646,596.9632196311213 L395.412374414078,596.1602595491161 M395.412374414078,596.1602595491161 L397.98512969275663,595.698526874155 M397.98512969275663,595.698526874155 L400.6748975583617,595.6048167032513 M400.6748975583617,595.6048167032513 L403.3254809794349,595.8845743460295 M403.3254809794349,595.8845743460295 L405.78291638342967,596.5215617342631 M405.78291638342967,596.5215617342631 L407.90447516122344,597.478803333662 M303.3586258256805,657.7058847681863 L305.02001167533473,658.9331919112951 M305.02001167533473,658.9331919112951 L306.1236388480526,660.3550882331599 M306.1236388480526,660.3550882331599 L306.6052974607404,661.8889749749596 M306.6052974607404,661.8889749749596 L306.43689650766106,663.4457377339589 M306.43689650766106,663.4457377339589 L305.6281123920029,664.9348961819312 M305.6281123920029,664.9348961819312 L304.22586282150894,666.2698617555496 M304.22586282150894,666.2698617555496 L302.3115895806643,667.3730061662538 M302.3115895806643,667.3730061662538 L299.99655190180346,668.1801514053834 M299.99655190180346,668.1801514053834 L297.4153289868704,668.6443319666035 M297.4153289868704,668.6443319666035 L294.7180264347395,668.7385398617289 M294.7180264347395,668.7385398617289 L292.06150804525356,668.4572943884526 M292.06150804525356,668.4572943884526 L289.60026409824405,667.8169527230741 M289.60026409824405,667.8169527230741 L287.4774020991351,666.8547870033069 M287.4774020991351,666.8547870033069 L285.8163265154304,665.626768334107 M285.8163265154304,665.626768334107 L284.71353965183755,664.204331546815 M284.71353965183755,664.204331546815 L284.2330639969901,662.670180188711 M284.2330639969901,662.670180188711 L284.4027245176616,661.1135083087809 M284.4027245176616,661.1135083087809 L285.21254233536547,659.6247673576022 M285.21254233536547,659.6247673576022 L286.61537187022424,658.2904451029179 M286.61537187022424,658.2904451029179 L288.5296423302344,657.1880305181662 M288.5296423302344,657.1880305181662 L290.8440951201064,656.3815344148713 M290.8440951201064,656.3815344148713 L293.424281173546,655.9177655328962 M293.424281173546,655.9177655328962 L296.12032348762136,655.8236427012625 M296.12032348762136,655.8236427012625 L298.775660891432,656.1046351919289 M298.775660891432,656.1046351919289 L301.23606869234266,656.7444247580802 M301.23606869234266,656.7444247580802 L303.3586258256805,657.7058847681863 M341.82556667820813,695.8665982155176 L353.8767745498806,701.6242664821749 M353.8767745498806,701.6242664821749 L367.6020769707544,705.9597641404337 M367.6020769707544,705.9597641404337 L382.5038494686075,708.7149946365134 M382.5038494686075,708.7149946365134 L398.04114537338756,709.7894051287678 M398.04114537338756,709.7894051287678 L413.64960438841234,709.1437749206941 M413.64960438841234,709.1437749206941 L428.76223235312546,706.8016697570793 M428.76223235312546,706.8016697570793 L442.83032338312023,702.8485781645364 M442.83032338312023,702.8485781645364 L455.3436386438219,697.4286898487003 M455.3436386438219,697.4286898487003 L465.8490978672009,690.7394877101444 M465.8490978672009,690.7394877101444 L473.9672977088561,683.0244006970295 M473.9672977088561,683.0244006970295 L479.4061500384466,674.5637476562956 M479.4061500384466,674.5637476562956 L481.9712669598848,665.6644073493617 M481.9712669598848,665.6644073493617 L481.57266336823477,656.6485563173561 M481.57266336823477,656.6485563173561 L478.2276172867927,647.8419748311243 M478.2276172867927,647.8419748311243 L472.05964420165674,639.5622597221302 M472.05964420165674,639.5622597221302 L463.2936544408881,632.1074495678859 M463.2936544408881,632.1074495678859 L452.24752473464275,625.7454447575889 M452.24752473464275,625.7454447575889 L439.32048483311667,620.7045266875612 M439.32048483311667,620.7045266875612 L424.9786902501049,617.1653438626411 M424.9786902501049,617.1653438626411 L409.7384954329876,615.2546170549433 M409.7384954329876,615.2546170549433 L394.1481078066225,615.0407196836627 M394.1481078066225,615.0407196836627 L378.76815308872744,616.5313015718847 M378.76815308872744,616.5313015718847 L364.1517773167103,619.6730298241482 M364.1517773167103,619.6730298241482 L350.82508776664866,624.3534389409574 M350.82508776664866,624.3534389409574 L339.26842133150336,630.4048362521971 M339.26842133150336,630.4048362521971 L329.8991960318361,637.6101645157562 M329.8991960318361,637.6101645157562 L323.0568312958085,645.7105925204073 M323.0568312958085,645.7105925204073 L318.99040261949085,654.4146579564224 M318.99040261949085,654.4146579564224 L317.84937417995513,663.4086108986951 M317.84937417995513,663.4086108986951 L319.67782196962185,672.367626108487 M319.67782196962185,672.367626108487 L324.41247166415377,680.9675178887461 M324.41247166415377,680.9675178887461 L331.8845490508052,688.89649908878 M331.8845490508052,688.89649908878 L341.82556667820813,695.8665982155176 M295.66547672761084,132.49791121311864 L311.5501553132896,140.3061042926754 M311.5501553132896,140.3061042926754 L329.24873022980665,146.75582293280743 M329.24873022980665,146.75582293280743 L348.39929715457004,151.71372033016092 M348.39929715457004,151.71372033016092 L368.6094053673739,155.07718552740403 M368.6094053673739,155.07718552740403 L389.46431406362973,156.7765312151221 M389.46431406362973,156.7765312151221 L410.5356859363704,156.77653121512193 M410.5356859363704,156.77653121512193 L431.39059463262623,155.07718552740403 M431.39059463262623,155.07718552740403 L451.60070284542996,151.71372033016092 M451.60070284542996,151.71372033016092 L470.7512697701934,146.75582293280743 M470.7512697701934,146.75582293280743 L488.44984468671055,140.3061042926754 M488.44984468671055,140.3061042926754 L504.33452327238945,132.49791121311864 M504.33452327238945,132.49791121311864 L518.0813762775346,123.49239910728306 M518.0813762775346,123.49239910728306 L529.4111546563621,113.47511169766352 M529.4111546563621,113.47511169766352 L538.0948531146729,102.65198591026677 M538.0948531146729,102.65198591026677 L543.9583171489941,91.24503515305616 M543.9583171489941,91.24503515305616 L546.8855053790692,79.4876621043419 M546.8855053790692,79.4876621043419 L546.8206148522985,67.61982308146048 M546.8206148522985,67.61982308146048 L543.7689025828668,55.883107205392434 M543.7689025828668,55.883107205392434 L537.7962595553894,44.51579731384618 M537.7962595553894,44.51579731384618 L529.0275720699414,33.74808471270552 M529.0275720699414,33.74808471270552 L517.6438800983561,23.797493593727154 M517.6438800983561,23.797493593727154 L503.87855661980933,14.864557678055348 M503.87855661980933,14.864557678055348 L488.01234732532356,7.128940951712536 M488.01234732532356,7.128940951712536 L470.3676851946979,0.7459191894326409 M470.3676851946979,0.7459191894326409 L451.3021071217236,-4.156564384119122 M451.3021071217236,-4.156564384119122 L431.2011784139161,-7.480388071799609 M431.2011784139161,-7.480388071799609 L410.47079479354045,-9.159076204967562 M410.47079479354045,-9.159076204967562 L389.5292052064596,-9.159076204967562 M389.5292052064596,-9.159076204967562 L368.798821586084,-7.480388071799609 M368.798821586084,-7.480388071799609 L348.6978928782765,-4.156564384119122 M348.6978928782765,-4.156564384119122 L329.63231480530214,0.7459191894326409 M329.63231480530214,0.7459191894326409 L311.98765267467655,7.128940951712536 M311.98765267467655,7.128940951712536 L296.1214433801906,14.864557678055348 M296.1214433801906,14.864557678055348 L282.3561199016439,23.797493593727154 M282.3561199016439,23.797493593727154 L270.97242793005876,33.74808471270512 M270.97242793005876,33.74808471270512 L262.20374044461073,44.51579731384618 M262.20374044461073,44.51579731384618 L256.23109741713336,55.883107205392264 M256.23109741713336,55.883107205392264 L253.17938514770162,67.61982308146048 M253.17938514770162,67.61982308146048 L253.11449462093088,79.4876621043419 M253.11449462093088,79.4876621043419 L256.041682851006,91.245035153056 M256.041682851006,91.245035153056 L261.9051468853272,102.65198591026677 M261.9051468853272,102.65198591026677 L270.5888453436379,113.47511169766318 M270.5888453436379,113.47511169766318 L281.9186237224655,123.49239910728306 M281.9186237224655,123.49239910728306 L295.66547672761084,132.49791121311864 M295.66547672761084,132.49791121311864 L296.3305480569025,485.7882301849151 M296.3305480569025,485.7882301849151 L312.1141336543521,493.64846699099155 M312.1141336543521,493.64846699099155 L329.69996540553194,500.14115283397524 M329.69996540553194,500.14115283397524 L348.72845465841834,505.1320656282875 M348.72845465841834,505.1320656282875 L368.80966875849566,508.51792198232806 M368.80966875849566,508.51792198232806 L389.5315330654472,510.2285784507509 M389.5315330654472,510.2285784507509 L410.46846693455296,510.2285784507509 M410.46846693455296,510.2285784507509 L431.19033124150445,508.51792198232806 M431.19033124150445,508.51792198232806 L451.2715453415818,505.1320656282875 M451.2715453415818,505.1320656282875 L470.3000345944682,500.14115283397535 M470.3000345944682,500.14115283397535 L487.885866345648,493.64846699099155 M487.885866345648,493.64846699099155 L503.6694519430977,485.7882301849151 M503.6694519430977,485.7882301849151 L517.3289270549475,476.7226577990958 M517.3289270549475,476.7226577990958 L528.5868138010309,466.63851686842736 M528.5868138010309,466.63851686842736 L537.2155493506917,455.743105770715 M537.2155493506917,455.743105770715 L543.0420648362209,444.25991000944845 M543.0420648362209,444.25991000944845 L545.9510287587323,432.4238847753542 M545.9510287587323,432.4238847753542 L545.8869610846409,420.47658774902436 M545.8869610846409,420.47658774902436 L542.8550521667988,408.66122572163084 M542.8550521667988,408.66122572163084 L536.9207421496777,397.2176824047417 M536.9207421496777,397.2176824047417 L528.2080952933293,386.3777006776967 M528.2080952933293,386.3777006776967 L516.8969786209979,376.3602755155904 M516.8969786209979,376.3602755155904 L503.21926726146063,367.36730051262873 M503.21926726146063,367.36730051262873 L487.45391675928215,359.5796612500201 M487.45391675928215,359.5796612500201 L469.9213141478177,353.15369175630747 M469.9213141478177,353.15369175630747 L450.9767360306896,348.2182089616548 M450.9767360306896,348.2182089616548 L431.0033169611457,344.8720056880464 M431.0033169611457,344.8720056880464 L410.40439865992755,343.18201280356544 M410.40439865992755,343.18201280356544 L389.59560134007256,343.18201280356544 M389.59560134007256,343.18201280356544 L368.9966830388544,344.8720056880464 M368.9966830388544,344.8720056880464 L349.0232639693105,348.2182089616548 M349.0232639693105,348.2182089616548 L330.0786858521824,353.15369175630747 M330.0786858521824,353.15369175630747 L312.54608324071796,359.5796612500201 M312.54608324071796,359.5796612500201 L296.7807327385393,367.36730051262884 M296.7807327385393,367.36730051262884 L283.1030213790023,376.3602755155903 M283.1030213790023,376.3602755155903 L271.79190470667095,386.3777006776967 M271.79190470667095,386.3777006776967 L263.0792578503224,397.2176824047417 M263.0792578503224,397.2176824047417 L257.1449478332013,408.66122572163084 M257.1449478332013,408.66122572163084 L254.11303891535914,420.47658774902436 M254.11303891535914,420.47658774902436 L254.0489712412679,432.4238847753542 M254.0489712412679,432.4238847753542 L256.9579351637792,444.25991000944845 M256.9579351637792,444.25991000944845 L262.78445064930844,455.74310577071486 M262.78445064930844,455.74310577071486 L271.41318619896936,466.6385168684273 M271.41318619896936,466.6385168684273 L282.6710729450526,476.7226577990957 M282.6710729450526,476.7226577990957 L296.3305480569025,485.7882301849151 M341.8339787179114,703.7993445870488 L332.1530542495876,697.0482957132085 M332.1530542495876,697.0482957132085 L324.7892668903447,689.3861167574298 M324.7892668903447,689.3861167574298 L319.9919846975199,681.0750264985351 M319.9919846975199,681.0750264985351 L317.9224629470049,672.3989643507759 M317.9224629470049,672.3989643507759 L318.64863691505496,663.6537954652831 M318.64863691505496,663.6537954652831 L322.143160676272,655.13717999421 M322.143160676272,655.13717999421 L328.2846725615124,647.1384579709368 M328.2846725615124,647.1384579709368 L336.86226495142387,639.928888375079 M336.86226495142387,639.928888375079 L347.58289871604705,633.7525708386947 M347.58289871604705,633.7525708386947 L360.08150334749405,628.8183133359594 M360.08150334749405,628.8183133359594 L373.93340037710226,625.292729816101 M373.93340037710226,625.292729816101 L388.66865532900067,623.2947593851991 M388.66865532900067,623.2947593851991 L403.787830200246,622.8917692786379 M403.787830200246,622.8917692786379 L418.7786757403903,624.0973398187768 M418.7786757403903,624.0973398187768 L433.1332222737177,626.8708320887158 M433.1332222737177,626.8708320887158 L446.36473911116013,631.1187111080426 M446.36473911116013,631.1187111080426 L458.02403172690157,636.69760965672 M341.8339787179114,703.7993445870488 L341.82556667820813,695.8665982155176 M458.02403172690157,636.69760965672 L467.71454450534605,643.4190361837202 M467.71454450534605,643.4190361837202 L475.1058016678525,651.0555934822692 M475.1058016678525,651.0555934822692 L479.94472519933606,659.3485231015388 M479.94472519933606,659.3485231015388 L482.06443593343835,668.0163383087705 M482.06443593343835,668.0163383087705 L481.3902203168769,676.764287737391 M481.3902203168769,676.764287737391 L477.9424070414039,685.2943357090176 M477.9424070414039,685.2943357090176 L471.8360492923167,693.3153280722399 M471.8360492923167,693.3153280722399 L463.2773069343675,700.5529981408465 M463.2773069343675,700.5529981408465 L452.5566732463445,706.7594511537307 M452.5566732463445,706.7594511537307 L440.0392186961517,711.7218091733471 M440.0392186961517,711.7218091733471 L426.15216754452587,715.2696631201297 M426.15216754452587,715.2696631201297 L411.3702020145596,717.2810661320639 M411.3702020145596,717.2810661320639 L396.19906864123374,717.6868367904829 M396.19906864123374,717.6868367904829 L381.1580339872486,716.4730192629124 M381.1580339872486,716.4730192629124 L366.7618460733372,713.6813662701107 M366.7618460733372,713.6813662701107 L353.50285950091853,709.4078655146029 M353.50285950091853,709.4078655146029 L341.8339787179114,703.7993445870488 M421.1160490794758,658.0125983694725 L425.56041512587865,661.2857637292202 M425.56041512587865,661.2857637292202 L428.51952784963765,665.0785899665896 M428.51952784963765,665.0785899665896 L429.82076850892247,669.1708069013545 M429.82076850892247,669.1708069013545 L429.3877320254881,673.3245555943724 M429.3877320254881,673.3245555943724 L427.24484188060524,677.2981889999523 M427.24484188060524,677.2981889999523 L423.5161031685393,680.8603340584291 M423.5161031685393,680.8603340584291 L418.4180314482011,683.8034115874345 M418.4180314482011,683.8034115874345 L412.2471490778844,685.9557991744939 M412.2471490778844,685.9557991744939 L405.3627323983336,687.1919142346683 M405.3627323983336,687.1919142346683 L398.16583351844173,687.4396061731757 M398.16583351844173,687.4396061731757 L391.0758140474977,686.6844163311969 M391.0758140474977,686.6844163311969 L384.5057685462165,684.9704292355042 M384.5057685462165,684.9704292355042 L378.83834295180054,682.3976672242877 M378.83834295180054,682.3976672242877 L374.403352110372,679.1162042481199 M374.403352110372,679.1162042481199 L371.45856510337165,675.3173303374197 M371.45856510337165,675.3173303374197 L370.1747452922115,671.2223318810115 M370.1747452922115,671.2223318810115 L370.6258457629449,667.0695434097395 M370.6258457629449,667.0695434097395 L372.7848628881509,663.1004476357783 M372.7848628881509,663.1004476357783 L376.5255925569752,659.5456471466314 M376.5255925569752,659.5456471466314 L381.6301079195641,656.6115054827039 M381.6301079195641,656.6115054827039 L387.8015166208023,654.4682380076529 M387.8015166208023,654.4682380076529 L394.6812319312089,653.240112304047 M394.6812319312089,653.240112304047 L401.86974185976754,652.9983094918565 M401.86974185976754,652.9983094918565 L408.925561049404,653.7524705573026 M408.925561049404,653.7524705573026 L415.46676474913187,655.4565993990193 M415.46676474913187,655.4565993990193 L421.1160490794758,658.0125983694725 M401.8687044911457,683.459375993036 L408.920608841014,684.2139554300753 M408.920608841014,684.2139554300753 L415.4581827231697,685.9190295541857 M415.4581827231697,685.9190295541857 L421.10433135082855,688.4764461201462 M421.10433135082855,688.4764461201462 L425.5331266916417,691.7389186280876 M425.5331266916417,691.7389186280876 L428.48858687399047,695.5184401541851 M428.48858687399047,695.5184401541851 L429.79950870137407,699.5970428122496 M401.8687044911457,683.459375993036 L401.86974185976754,652.9983094918565 M401.8687044911457,683.459375993036 L401.86559928077224,774.6400977645542 M429.79950870137407,699.5970428122496 L429.74996206726314,790.8044135797818 M303.08947478080137,504.8122581469614 L304.75547580949205,506.0361265778962 M304.75547580949205,506.0361265778962 L305.8621631921373,507.45403936202854 M305.8621631921373,507.45403936202854 L306.34514879856226,508.9836292762791 M306.34514879856226,508.9836292762791 L306.17626394525246,510.5360316128117 M306.17626394525246,510.5360316128117 L305.3652125507217,512.0210194539984 M305.3652125507217,512.0210194539984 L303.9590436016921,513.3522466421553 M303.9590436016921,513.3522466421553 L302.0394263787442,514.452302122527 M302.0394263787442,514.452302122527 L299.71793071225386,515.257187418853 M299.71793071225386,515.257187418853 L297.12951136519246,515.7200683709536 M297.12951136519246,515.7200683709536 L294.42469267890414,515.8140125088717 M294.42469267890414,515.8140125088717 L291.76077586000633,515.5335544539109 M291.76077586000633,515.5335544539109 L289.29268172741195,514.8950056477976 M289.29268172741195,514.8950056477976 L287.1639162856262,513.9355340017419 M287.1639162856262,513.9355340017419 L285.49822724728585,512.7109540693875 M285.49822724728585,512.7109540693875 L284.3923848675042,511.29250081627447 M284.3923848675042,511.29250081627447 L283.9105888211548,509.762646308048 M283.9105888211548,509.762646308048 L284.0807402539097,508.2103348403866 M284.0807402539097,508.2103348403866 L284.89283112693863,506.7257644781788 M284.89283112693863,506.7257644781788 L286.29958328300626,505.3951806020322 M286.29958328300626,505.3951806020322 L288.21919770181677,504.29585493059335 M288.21919770181677,504.29585493059335 L290.54010519537763,503.4916187468855 M290.54010519537763,503.4916187468855 L293.1274818780173,503.02914947250815 M293.1274818780173,503.02914947250815 L295.83103330877856,502.9352904041767 M295.83103330877856,502.9352904041767 L298.4937625562921,503.2154954662699 M298.4937625562921,503.2154954662699 L300.96101588393475,503.85349220218814 M300.96101588393475,503.85349220218814 L303.08947478080137,504.8122581469614 M303.08947478080137,504.8122581469614 L303.3586258256805,657.7058847681863 M407.9264410695648,444.7542976352179 L409.59346175515986,445.97278779871516 M409.59346175515986,445.97278779871516 L410.7031533619339,447.3844630590875 M410.7031533619339,447.3844630590875 L411.1909337589321,448.9073298115028 M411.1909337589321,448.9073298115028 L411.02837098528,450.45290540217655 M411.02837098528,450.45290540217655 L410.2248019989115,451.93135970503147 M410.2248019989115,451.93135970503147 L408.8268313677731,453.25673214715016 M408.8268313677731,453.25673214715016 L406.9156570088889,454.35194936144853 M406.9156570088889,454.35194936144853 L404.60235780733734,455.1532944866489 M404.60235780733734,455.1532944866489 L402.02140672267626,455.61414236576104 M402.02140672267626,455.61414236576104 L399.3229033312095,455.70767329028394 M399.3229033312095,455.70767329028394 L396.663781324059,455.42844593743183 M396.663781324059,455.42844593743183 L394.198667626061,454.79270862103067 M394.198667626061,454.79270862103067 L392.07091481471826,453.83745411538166 M392.07091481471826,453.83745411538166 L390.4041919561195,452.61826290707523 M390.4041919561195,452.61826290707523 L389.2953496494709,451.2060449766442 M389.2953496494709,451.2060449766442 L388.80874248862784,449.6829211358545 M388.80874248862784,449.6829211358545 L388.97256663068237,448.1374358216766 M388.97256663068237,448.1374358216766 L389.7771821910867,446.6593904784911 M389.7771821910867,446.6593904784911 L391.17573591448206,445.33465710327323 M391.17573591448206,445.33465710327323 L393.0869102734004,444.2401648892292 M393.0869102734004,444.2401648892292 L395.399626382734,443.4394646060288 M395.399626382734,443.4394646060288 L397.9795308933349,442.97903146067415 M397.9795308933349,442.97903146067415 L400.67677291633254,442.8855850388624 M400.67677291633254,442.8855850388624 L403.33472168727735,443.16455530360105 M403.33472168727735,443.16455530360105 L405.7989860851577,443.7997499495773 M405.7989860851577,443.7997499495773 L407.9264410695648,444.7542976352179 M407.9264410695648,444.7542976352179 L407.90447516122344,597.478803333662 M512.7983732201787,504.81225814696154 L514.4737742399202,506.0361294773983 M514.4737742399202,506.0361294773983 L515.5913577951512,507.45403646222525 M515.5913577951512,507.45403646222525 L516.0860978255236,508.9836321764076 M516.0860978255236,508.9836321764076 L515.9291376135598,510.5360316128117 M515.9291376135598,510.5360316128117 L515.1295029054188,512.0210165532244 M515.1295029054188,512.0210165532244 L513.7335690673289,513.3522466421555 M513.7335690673289,513.3522466421555 L511.8224054119633,514.452302122527 M511.8224054119633,514.452302122527 L509.5070899622784,515.2571845173914 M509.5070899622784,515.2571845173914 L506.92222266328815,515.7200683709536 M506.92222266328815,515.7200683709536 L504.2181309707487,515.8140154104518 M504.2181309707487,515.8140154104518 L501.55205890135215,515.5335515523905 M501.55205890135215,515.5335515523905 L499.0790577508878,514.8950085491824 M499.0790577508878,514.8950085491824 L496.94292412438153,513.9355340017419 M496.94292412438153,513.9355340017419 L495.2678195467106,512.710956970308 M495.2678195467106,512.710956970308 L494.15107679644194,511.2924979156555 M494.15107679644194,511.2924979156555 L493.6575243374008,509.76264920834205 M493.6575243374008,509.76264920834205 L493.81574170191027,508.2103348403867 M493.81574170191027,508.2103348403867 L494.6164291773614,506.72576157853024 M494.6164291773614,506.72576157853024 L496.0129612913301,505.3951806020322 M496.0129612913301,505.3951806020322 L497.9241277509019,504.29585493059335 M497.9241277509019,504.29585493059335 L500.2388498906779,503.49161584792404 M500.2388498906779,503.49161584792404 L502.82266760823256,503.02914947250827 M502.82266760823256,503.02914947250827 L505.5255028241745,502.93529330301993 M505.5255028241745,502.93529330301993 L508.1903853334452,503.21549256736705 M508.1903853334452,503.21549256736705 L510.6625414810521,503.8534951012265 M510.6625414810521,503.8534951012265 L512.7983732201787,504.81225814696154 M512.7983732201787,504.81225814696154 L512.4850966184453,657.7058847681863 M407.9614842242441,565.1357376200481 L409.63588185106244,566.3650229308939 M409.63588185106244,566.3650229308939 L410.75047201484216,567.7892088334347 M410.75047201484216,567.7892088334347 L411.24042202433657,569.3255723686607 M411.24042202433657,569.3255723686607 L411.07713815925854,570.8848438683755 M411.07713815925854,570.8848438683755 L410.2700132146967,572.3764057264832 M410.2700132146967,572.3764057264832 L408.865867427961,573.7135294545908 M408.865867427961,573.7135294545908 L406.9462422659296,574.8184553325099 M406.9462422659296,574.8184553325099 L404.6227077803787,575.6269013971548 M404.6227077803787,575.6269013971548 L402.0303470328537,576.0918318327839 M402.0303470328537,576.0918318327839 L399.3199137105885,576.1861948429098 M399.3199137105885,576.1861948429098 L396.6490208793277,575.9044920897047 M396.6490208793277,575.9044920897047 L394.1730152400789,575.2631189437319 M394.1730152400789,575.2631189437319 L392.0358482249134,574.2993992424256 M392.0358482249134,574.2993992424256 L390.3617612124022,573.069397706999 M390.3617612124022,573.069397706999 L389.24800758093556,571.6446619038092 M389.24800758093556,571.6446619038092 L388.7592615013977,570.1080378547374 M388.7592615013977,570.1080378547374 L388.9238077669098,568.5488519953919 M388.9238077669098,568.5488519953919 L389.7319784137905,567.0577103849528 M389.7319784137905,567.0577103849528 L391.136722608435,565.7212400777179 M391.136722608435,565.7212400777179 L393.0563477705012,564.6170488600296 M393.0563477705012,564.6170488600296 L395.3792838481826,563.809250390344 M395.3792838481826,563.809250390344 L397.9705988933643,563.344734375446 M397.9705988933643,563.344734375446 L400.6797698151283,563.2504628329348 M400.6797698151283,563.2504628329348 L403.3494587163798,563.5319050725584 M403.3494587163798,563.5319050725584 L405.82462782332436,564.1727283175107 M405.82462782332436,564.1727283175107 L407.9614842242441,565.1357376200481 M407.9614842242441,565.1357376200481 L407.93932393351633,718.1984917188217 M401.8687044911457,683.459375993036 L429.79950870137407,699.5970428122496" stroke="black"  stroke-width="4"  fill="red"/></svg>